# xmcd
#
# Track frame offsets:
# 150
# 13874
# 28742
# 47815
# 65724
# 81400
# 99457
# 114402
# 133057
# 148797
# 165430
# 180000
# 198092
# 211397
#
# Disc length: 3062 seconds
#
#
# Revision: 0
# Processed by: cddbd v1.5.2PL0 Copyright (c) Steve Scherf et al.
# Submitted via: FreeRIP 2.96 
#
DISCID=c00bf40e
DTITLE=Leandro and Leonardo - Nova Série
DYEAR=2007
DGENRE=Sertanejo
TTITLE0=Não aprendi a dizer a adeus
TTITLE1=Pense em mim
TTITLE2=Eu juro
TTITLE3=Horizonte azul
TTITLE4=Cerveja
TTITLE5=Festa de rodeio
TTITLE6=Entre tapas e beijos
TTITLE7=Desculpe, mas eu vou chorar
TTITLE8=Paz na cama
TTITLE9=Diga pra mim
TTITLE10=Não olhe assim
TTITLE11=Sonho por sonho
TTITLE12=Doce mistério
TTITLE13=Temporal de amor
EXTD=
EXTT0=
EXTT1=
EXTT2=
EXTT3=
EXTT4=
EXTT5=
EXTT6=
EXTT7=
EXTT8=
EXTT9=
EXTT10=
EXTT11=
EXTT12=
EXTT13=
PLAYORDER=
